# xmcd CD database file
#
# Track frame offsets:
#	150
#	13245
#	23675
#	35910
#	46163
#	58970
#	69395
#	79353
#	89753
#	101808
#	112690
#
# Disc length: 1671 seconds
#
# Revision: 3
# Processed by: cddbd v1.5.2PL0 Copyright (c) Steve Scherf et al.
# Submitted via: CDex 1.40Release
#
DISCID=9406850b
DTITLE=Bob Wills - Greatest Hits
DYEAR=1990
DGENRE=Country
TTITLE0=Faded Love
TTITLE1=Bubbles in my Beer
TTITLE2=Keeper of My Heart
TTITLE3=Deep In The Heart Of Texas
TTITLE4=New San Antonio Rose
TTITLE5=South of the Border
TTITLE6=Across the Valley From the Alamo
TTITLE7=Cimarron
TTITLE8=Heart to Heart Talk
TTITLE9=Image of Me
TTITLE10=Ida Red
EXTD=Curb Records D2-77389 YEAR: 1990 ID3G: 2
EXTT0=
EXTT1=
EXTT2=
EXTT3=
EXTT4=
EXTT5=
EXTT6=
EXTT7=
EXTT8=
EXTT9=
EXTT10=
PLAYORDER=
